<?xml version="1.0" encoding="utf-8"?>
<!-- Generator: Adobe Illustrator 15.0.0, SVG Export Plug-In . SVG Version: 6.00 Build 0)  -->
<!DOCTYPE svg PUBLIC "-//W3C//DTD SVG 1.1//EN" "http://www.w3.org/Graphics/SVG/1.1/DTD/svg11.dtd">
<svg version="1.1" id="Layer_1" xmlns="http://www.w3.org/2000/svg" xmlns:xlink="http://www.w3.org/1999/xlink" x="0px" y="0px"
	 viewBox="0 0 500 500" enable-background="new 0 0 500 500" xml:space="preserve">
<path d="M250.6,83.327c0,0-66.37,0.535-138.171,39.12C84.739,137.331,32.373,178.45,3.181,250.449
	c-12.852,31.699,63.662,97.103,88.967,115.761c25.305,18.659,100.614,52.362,127.725,46.345
	c-65.766-14.407-112.551-55.861-118.448-60.948c-6.269-5.406-82.388-77.998-70.729-99.753
	c10.641-19.862,73.299-94.094,168.091-102.12c0,0-39.768,39.111-44.583,56.376c-4.982,17.86-22.493,98.107,73.502,127.398
	c90.374,27.576,123.403-76.571,124.51-87.875c1.047-10.632,6.022-65.93-49.802-121.979C270.625,91.736,250.6,83.327,250.6,83.327z"
	/>
<path d="M174.085,335.514c0,0,63.155,52.287,190.988,0c83.141-34.007,104.829-97.503,104.829-97.503s-27.111-95.098-177.128-151.072
	c0,0,69.659,8.3,153.633,74.031c47.587,37.248,51.812,70.419,51.812,70.419s5.645,76.403-109.65,145.654
	c-47.595,28.592-135.56,36.93-137.969,36.223C248.19,412.555,206.017,395.701,174.085,335.514z"/>
<ellipse cx="250.599" cy="237.708" rx="105.132" ry="105.027"/>
<g>
	<path fill="#8DC63F" d="M227.373,280.227c-1.519-1.843-2.963-3.679-4.332-5.502c-9.074-12.094-14.803-23.441-17.784-30.121
		c-0.056-0.131-0.113-0.252-0.168-0.374c-3.932,11.862-6.839,26.31-6.028,42.09c0.019,0.485,0.047,0.968,0.084,1.463
		c0.01,0.196,0.028,0.391,0.047,0.596c0.018,0.419,0.055,0.848,0.092,1.275c0.075,0.93,0.168,1.864,0.271,2.804
		c0.056,0.468,0.113,0.935,0.167,1.409c0.075,0.604,0.158,1.201,0.242,1.795c0.038,0.317,0.094,0.627,0.142,0.933
		c0.614,4.08,1.489,8.115,2.654,12.103c0.075,0.288,0.159,0.567,0.243,0.857c0.159,0.55,0.316,1.088,0.494,1.629
		c0.158,0.495,0.317,0.978,0.476,1.473c0.018,0.047,0.037,0.093,0.046,0.15c0.364,1.078,0.736,2.151,1.137,3.224
		c0.214,0.604,0.447,1.2,0.679,1.807h0.009c0,0,0,0.008,0.009,0.008c13.461,7.695,29.057,12.091,45.676,12.091
		c14.3,0,27.845-3.26,39.928-9.063c0.019-0.008,0.038-0.021,0.057-0.026C261.404,314.443,240.415,296.037,227.373,280.227z"/>
	<path fill="#8DC63F" d="M269.351,280.868c-7.044,0.85-13.528,1.14-19.069,1.14c-6.569,0-12.037-0.394-15.932-0.793
		c-0.14-0.009-0.271-0.028-0.401-0.036c7.742,8.7,17.859,17.746,30.584,24.743c0.728,0.398,1.452,0.799,2.191,1.183
		c0.417,0.224,0.845,0.438,1.266,0.651c0.502,0.252,0.997,0.501,1.509,0.746c0.42,0.203,0.838,0.408,1.256,0.597
		c0.542,0.249,1.081,0.501,1.631,0.745c1.007,0.456,2.023,0.883,3.048,1.293c7.239,2.963,14.784,5.03,22.636,6.204
		c0.01,0,0.02,0,0.02-0.01c25.413-14.894,43.066-41.604,45.396-72.589c0.009-0.018,0.009-0.025,0.009-0.036
		C321.425,269.233,292.37,278.067,269.351,280.868z"/>
	<path fill="#8DC63F" d="M300.43,237.365c-0.841,2.244-1.715,4.415-2.611,6.512c-5.932,13.881-12.876,24.5-17.168,30.416
		c-0.083,0.121-0.178,0.242-0.262,0.366c20.059-4.128,44.716-14.117,63.357-37.444c0,0,0.009-0.009,0.009-0.019
		c0,0-0.009,0-0.009-0.008c-0.166-31.404-16.041-59.091-40.16-75.617c-0.01-0.01-0.019-0.019-0.036-0.028
		C313.041,190.795,307.591,218.184,300.43,237.365z"/>
	<path fill="#8DC63F" d="M275.685,195.183c1.527,1.845,2.971,3.69,4.341,5.515c9.065,12.102,14.793,23.438,17.766,30.118
		c4.211-12.632,6.307-24.957,6.307-36.918c0.009-0.531,0-1.062-0.009-1.603c0-0.437-0.009-0.884-0.03-1.322
		c-0.017-0.625-0.044-1.25-0.072-1.874c-0.02-0.483-0.047-0.979-0.085-1.461c-0.009-0.196-0.019-0.383-0.036-0.568
		c-0.065-0.923-0.141-1.845-0.231-2.777c-0.867-9.139-3.011-18.054-6.411-26.717h-0.009c-0.01-0.009-0.01-0.009-0.02-0.02
		c-13.47-7.675-29.054-12.073-45.666-12.073c-14.3,0-27.845,3.252-39.918,9.065c-0.019,0.009-0.038,0.018-0.057,0.028
		C241.653,160.965,262.642,179.384,275.685,195.183z"/>
	<path fill="#8DC63F" d="M233.697,194.558c7.053-0.866,13.536-1.154,19.079-1.154c6.559,0,12.028,0.391,15.931,0.792
		c0.139,0.019,0.271,0.028,0.399,0.046c-7.741-8.701-17.867-17.756-30.592-24.743c-0.716-0.411-1.453-0.802-2.189-1.184
		c-0.42-0.223-0.839-0.438-1.266-0.652c-0.615-0.316-1.24-0.615-1.864-0.914c-0.298-0.149-0.605-0.288-0.903-0.428
		c-0.541-0.251-1.082-0.494-1.631-0.745c-8.142-3.652-16.713-6.159-25.685-7.499c-0.008,0-0.018,0-0.018,0.01
		c-13.192,7.731-24.296,18.65-32.243,31.702c-4.723,7.75-8.337,16.245-10.61,25.282c-1.276,5.049-2.134,10.266-2.535,15.604
		c-0.009,0.019-0.009,0.028-0.009,0.038C181.622,206.186,210.678,197.344,233.697,194.558z"/>
	<path fill="#8DC63F" d="M202.62,238.045c0.839-2.244,1.714-4.415,2.609-6.512c5.934-13.881,12.875-24.5,17.168-30.416
		c0.085-0.122,0.178-0.243,0.262-0.363c-20.048,4.136-44.707,14.113-63.347,37.441v0.009c0,0.009,0,0.009,0,0.009
		c0.158,31.412,16.032,59.101,40.15,75.624c0.009,0.021,0.028,0.03,0.038,0.03C190.016,284.614,195.457,257.235,202.62,238.045z"/>
</g>
</svg>
