<?xml version="1.0" encoding="utf-8"?>
<!-- Generator: Adobe Illustrator 15.0.0, SVG Export Plug-In . SVG Version: 6.00 Build 0)  -->
<!DOCTYPE svg PUBLIC "-//W3C//DTD SVG 1.1//EN" "http://www.w3.org/Graphics/SVG/1.1/DTD/svg11.dtd">
<svg version="1.1" id="Layer_1" xmlns="http://www.w3.org/2000/svg" xmlns:xlink="http://www.w3.org/1999/xlink" x="0px" y="0px"
	  viewBox="0 0 500 500" enable-background="new 0 0 500 500" xml:space="preserve">
<g id="Layer_3" display="none">
	<path display="inline" fill="#D7D7D7" d="M250.001,0.853L34.232,125.426v249.148L250,499.148l215.767-124.574V125.426
		L250.001,0.853z M227.035,371.826c-0.281,15.129-7.929,30.178-18.118,36.233c0-10.825,0-21.655,0-32.483
		c-9.899-6.762-20.746-12.574-31.238-18.742c-10.95,5.5-20.733,12.168-31.238,18.115c0,10.83,0,21.658,0,32.487
		c-4.711-0.659-6.714-3.59-8.187-5.268c-7.036-8.012-11.61-19.231-9.931-36.592c1.979-20.445,16.85-34.906,32.487-40.607
		c0-49.772,0-99.544,0-149.316c-15.864-6.839-30.294-21-32.487-40.609c-2.066-18.476,6.477-33.885,18.316-43.733l-0.198,34.362
		c0,0,20.653,12.25,30.613,18.742c11.044-5.824,21.452-12.284,31.862-18.742c0-11.038,0-22.075,0-33.112
		c3.545,1.021,5.257,2.93,6.872,4.998c5.394,6.907,11.008,18.768,11.246,30.613c0.485,24.255-15.755,40.814-33.112,46.856
		c0,49.772,0,99.545,0,149.316C210.729,331.469,227.493,347.105,227.035,371.826z M250.774,200.018
		c14.444-0.096,29.519,5.808,37.486,13.121c30.894,28.359,15.706,92.896-36.861,89.964c-0.069-9.125,0-28.738,0-28.738
		s7.813-1.6,11.246-3.125c21.117-9.375,12.897-42.512-11.871-41.857V200.018L250.774,200.018z M411.961,286.859
		c0,0-25.406,0-38.109,0c-3.551,8.736-11.245,25.615-11.245,25.615s13.838,15.088,21.866,23.114c1.411,1.41,7.497,6.873,7.497,6.873
		s-10.351,10.892-12.495,13.119c-12.242,12.709-38.109,37.483-38.109,37.483l-31.237-30.61c0,0-15.941,7.383-25.614,9.371
		c0,12.495,0,37.485,0,37.485s-22.492,0-33.737,0c0-24.783,0-49.563,0-74.348c46.048-2.291,80.438-30.201,84.342-74.971
		c0.352-4.024,0.244-8.207,0-11.869c-3.115-46.469-35.995-75.376-84.342-78.094c0-26.448,0-52.896,0-79.343
		c11.245,0,22.492,0,33.737,0c0,13.953,0,41.858,0,41.858s13.346,4.564,19.367,7.497c8.637-6.327,16.408-13.91,24.989-22.491
		c1.479-1.477,7.496-8.122,7.496-8.122s9.755,9.898,12.496,12.495c12.763,12.099,38.109,36.86,38.109,36.86l-26.864,28.739
		c0,0,9.68,17.393,12.494,28.113c13.12,0,39.359,0,39.359,0V286.859L411.961,286.859z"/>
</g>
<g>
	<path fill="#00ADEE" d="M175.505,167.168c-7.075,1.686-11.194,7.669-11.823,15.568c-2.238,28.55,31.43,26.18,29.375,0
		C192.253,173.371,185.265,164.91,175.505,167.168z"/>
	<path fill="#00ADEE" d="M326.372,143.638c-2.654,2.51-5.971,4.359-8.854,6.641c1.968,0,3.936,0,5.903,0
		C323.689,147.643,329.537,145.079,326.372,143.638z"/>
	<path fill="#00ADEE" d="M338.181,123.711c-5.646-1.449-7.981,4.856-11.07,1.478c0.236,1.711-0.116,2.833-0.738,3.689
		C332.104,128.95,335.957,127.146,338.181,123.711z"/>
	<path fill="#00ADEE" d="M250.078,0L33.973,124.769v249.536l216.105,124.77l216.104-124.77V124.769L250.078,0z M401.646,198.248
		c4.672,1.745,5.41,10.459,5.169,14.759C401.109,212.069,401.443,205.096,401.646,198.248z M200.752,364.279
		c-1.075,14.446-8.053,28.438-14.953,38.817c-1.61,2.479-6,9.696-7.163,9.819c-1.522,0-5.91-7.12-7.703-9.819
		c-8.142-12.187-17.281-29.672-14.413-51.787c1.793-0.572,1.968,0.895,3.577,0.563c2.334,17.597,9.585,28.988,18.006,38.929
		c6.533-6.777,13.074-16.254,16.476-27.194c1.251-4.177,0.087-10.611,4.653-12.298C201.653,352.996,201.024,359.773,200.752,364.279
		z M228.518,340.92c-8.15-3.382-16.03-12.749-24.18-18.159c-5.107,2.59-5.282,11.503-7.704,17.488
		c-9.13,5.298-27.399,5.298-36.537,0c-2.771-5.533-2.326-15.118-6.716-16.816c-5.37-2.137-18.985,18.28-24.713,17.487
		c-0.717-5.861-1.435-11.614-2.054-17.487c-0.456-5.751-2.152-12.968-1.523-17.486c0.807-5.642,8.239-11.624,11.371-15.569
		c4.388-5.642,8.237-10.488,11.823-14.897c-1.88-32.712-6.543-65.328-5.194-96.015c1.793-39.38,19.518-74.915,35.547-93.305
		c16.39,22.114,32.953,52.117,34.928,93.305c1.608,31.701-3.498,63.412-5.107,94.66c6.715,11.858,16.922,19.295,23.638,31.151
		C230.661,316.887,229.682,328.965,228.518,340.92z M396.482,319.276c-1.542-7.695,4.604-10.027,0.738-16.237
		c0.359,1.678-1.779,3.717-1.477,7.383c-3.337,0.843-5.088,3.276-8.855,3.688c-0.604,4.539,0.591,7.283,1.476,10.332
		c-4.156,1.918-6.692,11.612-2.952,14.758c-29.327,41.029-68.928,71.781-137.265,73.799c0-108.976,0-217.947,0-326.925
		c51.273,0.88,84.792,19.51,112.174,44.279c-3.692,2.378-3.674,4.089-6.642,6.642c0.614,1.675,4.534-1.471,5.904,0.738
		c0.945,3.251-3.532,3.023-1.477,5.166c5.018,0.835,4.404-3.96,8.116-4.428c2.181-1.063,4.951,2.647,5.904,5.167
		c-3.274-0.077-2.563,3.832-5.164,4.428c-13.793-5.553-25.387,2.215-34.686,5.903c3.059-4.995,1.245-11.33,5.902-15.498
		c-3.797-2.228-7.11,3.666-6.64,8.119c-3.115,1.12-8.672,5.54-2.955,5.166c-0.476,3.212-1.286,6.09-5.901,5.164
		c-2.186,1.296,2.826,1.533,2.214,3.69c-1.013,6.526-10.193,5.725-15.499,5.904c-2.136,3.03-4.023,6.309-6.64,8.856
		c2.006,0.452,1.053,3.865,2.212,5.166c7.366-0.506,12.861-2.883,14.761-8.856c7.139-1.47,12.622-4.599,19.187-6.642
		c4.745,2.144,7.262,6.516,10.332,10.333c2.013,0.537,1.485-1.467,2.952-1.476c-0.792-4.374-6.344-3.988-6.643-8.856
		c2.804-2.929,5.069,0.508,8.119,0c2.311,4.535,1.093,11.465,4.428,13.285c-1.372,1.332-3.761,4.531,0,5.166
		c2.874-3.521,0.421-12.372,7.378-11.809c0.324,0.908,0.946,1.517,2.217,1.476c-0.232,5.327-1.063,8.347,2.949,10.333
		c2.768-1.573,9.254-2.53,11.809,0c-1.495,7.114-9.36,7.859-8.856,16.972c-3.198,0.493-1.984-3.425-2.214-5.904
		c-9.746,1.494-17.987-4.329-23.614,1.478c-5.112-2.268-10.34-4.422-14.023-8.117c-0.647-2.373,2.435-1.012,2.215-2.952
		c-3.454-2.654-26.699-2.431-31.733-1.476c-6.987,1.322-13.003,11.47-18.448,17.71c-1.648,1.89-4.778,2.876-5.904,4.429
		c-1.14,1.569-1.537,4.884-2.952,7.378c-2.318,4.083-6.337,8.262-5.904,15.5c-2.184,1.999-3.11,5.254-5.164,7.378
		c3.996,9.289,7.386,19.181,15.494,24.354c8.519-2.171,18.411,1.602,23.617-3.689c5.557,3.5,16.823,6.432,10.332,16.972
		c1.841,5.701,3.579,7.019,6.643,11.07c2.952,12.606-0.556,22.846,0,36.899c4.624,12.253,6.099,26.227,13.282,36.161
		c15.444,0.932,24.674-4.353,24.355-19.187c2.349-0.357,3.089-2.325,5.901-2.214c-2.176-17.675,12.194-18.804,14.761-31.735
		c-2.325-6.23-6.323-12.007-2.95-19.925c7.692-5.344,11.729-14.344,19.925-19.188c1.164-6.666,3.378-11.061,6.643-16.971
		c-7.662-0.951-15.03-2.19-19.927-5.904c-4.374-13.09-12.216-22.716-11.071-41.327c2.065-0.482,3.601,1.243,6.643-0.738
		c1.63,16.128,9.465,29.836,12.547,42.065c6.6-2.256,11.097-6.614,18.448-8.118C415.446,266.571,406.46,297.159,396.482,319.276z"/>
</g>
</svg>
