<?xml version="1.0" encoding="utf-8"?>
<!-- Generator: Adobe Illustrator 15.0.0, SVG Export Plug-In . SVG Version: 6.00 Build 0)  -->
<!DOCTYPE svg PUBLIC "-//W3C//DTD SVG 1.1//EN" "http://www.w3.org/Graphics/SVG/1.1/DTD/svg11.dtd">
<svg version="1.1" id="Layer_1" xmlns="http://www.w3.org/2000/svg" xmlns:xlink="http://www.w3.org/1999/xlink" x="0px" y="0px"
	  viewBox="0 0 500 500" enable-background="new 0 0 500 500" xml:space="preserve">
<path fill="#00AEEF" d="M241.905,296.129c-11.732,0-20.643-0.214-26.723-0.651c-18.688,81.697-29.116,138.402-31.286,170.116
	c-18.688,9.125-47.152,13.688-85.384,13.688c-8.259,0-13.912-0.225-16.946-0.652c3.035-25.633,16.07-90.048,39.107-193.254
	c23.026-103.196,34.544-168.263,34.544-195.209c0-5.214-2.933-12.058-8.799-20.531s-11.844-15.531-17.924-21.183l-8.473-8.473
	l1.956-9.777c73-10.856,132.088-16.295,177.286-16.295c89.508,0,134.268,36.5,134.268,109.5c0,48.67-16.081,89.621-48.232,122.861
	C353.137,279.509,305.343,296.129,241.905,296.129z M231.477,252.46c33.455,0,58.763-12.598,75.934-37.804
	c17.16-25.195,25.745-58.875,25.745-101.027c0-17.374-3.259-31.611-9.776-42.692c-6.519-11.08-16.081-16.62-28.679-16.62
	c-8.26,0-18.475,1.527-30.634,4.563c-6.956,45.625-19.992,110.151-39.107,193.58H231.477z"/>
</svg>
